<svg width="24" height="24" viewBox="0 0 24 24"  xmlns="http://www.w3.org/2000/svg">
<path d="M17 11.9811C17.0003 11.7631 16.9541 11.5475 16.8646 11.3487C16.7751 11.1499 16.6444 10.9726 16.4811 10.8285L9.06162 4.2881C8.81575 4.08138 8.49893 3.97925 8.1789 4.00355C7.85887 4.02785 7.56102 4.17665 7.34905 4.41813C7.13709 4.65961 7.02782 4.9746 7.04462 5.29576C7.06141 5.61691 7.20294 5.91874 7.43894 6.13669L13.927 11.8558C13.9448 11.8714 13.959 11.8907 13.9688 11.9123C13.9786 11.9339 13.9837 11.9574 13.9837 11.9811C13.9837 12.0048 13.9786 12.0283 13.9688 12.0499C13.959 12.0715 13.9448 12.0908 13.927 12.1064L7.43894 17.8255C7.31348 17.931 7.21033 18.0606 7.13556 18.2066C7.06078 18.3526 7.01589 18.5121 7.00351 18.6757C6.99114 18.8394 7.01153 19.0038 7.0635 19.1594C7.11547 19.3151 7.19796 19.4587 7.30612 19.5819C7.41429 19.7052 7.54594 19.8055 7.69335 19.877C7.84076 19.9485 8.00095 19.9898 8.1645 19.9983C8.32805 20.0069 8.49166 19.9827 8.64573 19.927C8.79979 19.8713 8.94119 19.7853 9.06162 19.6741L16.4784 13.1357C16.6421 12.9914 16.7733 12.8138 16.8632 12.6147C16.9532 12.4156 16.9998 12.1996 17 11.9811Z" fill="#1C252B"/>
</svg>
